# xmcd CD database file
#
# Track frame offsets:
#	150
#	15781
#	29051
#	50421
#	65998
#	84997
#	107608
#	125725
#	138599
#	155401
#	173391
#	185318
#	204195
#	221730
#
# Disc length: 3197 seconds
#
# Revision: 1
# Processed by: cddbd v1.5.2PL0 Copyright (c) Steve Scherf et al.
# Submitted via: CDex 1.70beta2
#
DISCID=bc0c7b0e
DTITLE=Performed by Love Unlimited - Romantic Sax
DYEAR=1999
DGENRE=Jazz
TTITLE0=Blue Eyes
TTITLE1=Stand by Me
TTITLE2=The Greatest Love of All
TTITLE3=She's out of My Life
TTITLE4=Holding back the Years
TTITLE5=Songbird
TTITLE6=Theme from "Dying Young"
TTITLE7=Blue Moon
TTITLE8=We've got Tonight
TTITLE9=I'm not in Love
TTITLE10=Ti amo
TTITLE11=Up where We Belong
TTITLE12=Suddenly
TTITLE13=Memory
EXTD=YEAR: 1999
EXTT0=
EXTT1=
EXTT2=
EXTT3=
EXTT4=
EXTT5=
EXTT6=
EXTT7=
EXTT8=
EXTT9=
EXTT10=
EXTT11=
EXTT12=
EXTT13=
PLAYORDER=
